<svg width="65" height="37" viewBox="0 0 65 37" fill="none" xmlns="http://www.w3.org/2000/svg">
<path d="M32.08 18.42C32.08 21.94 31.4 25.08 30.04 27.84C28.68 30.56 26.82 32.7 24.46 34.26C22.1 35.82 19.42 36.6 16.42 36.6C13.46 36.6 10.78 35.82 8.38 34.26C6.02 32.7 4.16 30.56 2.8 27.84C1.44 25.08 0.76 21.94 0.76 18.42C0.76 14.9 1.44 11.78 2.8 9.06C4.16 6.3 6.02 4.14 8.38 2.58C10.78 0.979999 13.46 0.18 16.42 0.18C19.42 0.18 22.1 0.979999 24.46 2.58C26.82 4.14 28.68 6.3 30.04 9.06C31.4 11.78 32.08 14.9 32.08 18.42ZM22.42 18.42C22.42 16.54 22.16 14.9 21.64 13.5C21.12 12.1 20.4 11 19.48 10.2C18.6 9.4 17.58 9 16.42 9C15.22 9 14.16 9.4 13.24 10.2C12.32 11 11.6 12.1 11.08 13.5C10.6 14.9 10.36 16.54 10.36 18.42C10.36 20.3 10.6 21.94 11.08 23.34C11.6 24.74 12.32 25.84 13.24 26.64C14.16 27.4 15.22 27.78 16.42 27.78C17.58 27.78 18.6 27.4 19.48 26.64C20.4 25.84 21.12 24.74 21.64 23.34C22.16 21.94 22.42 20.3 22.42 18.42ZM64.4955 27.36V36H38.5755V27.36H47.0955V12.06C46.7355 12.54 46.1755 13.02 45.4155 13.5C44.6555 13.98 43.7955 14.44 42.8355 14.88C41.9155 15.32 40.9755 15.68 40.0155 15.96C39.0555 16.2 38.1755 16.32 37.3755 16.32V7.44C38.0555 7.44 38.8955 7.24 39.8955 6.84C40.8955 6.4 41.8955 5.86 42.8955 5.22C43.9355 4.58 44.8355 3.94 45.5955 3.3C46.3955 2.66 46.8955 2.14 47.0955 1.74H56.8755V27.36H64.4955Z" fill="#1A1A1A"/>
</svg>
