<svg width="67" height="37" viewBox="0 0 67 37" fill="none" xmlns="http://www.w3.org/2000/svg">
<path d="M31.4135 18.42C31.4135 21.94 30.7335 25.08 29.3735 27.84C28.0135 30.56 26.1535 32.7 23.7935 34.26C21.4335 35.82 18.7535 36.6 15.7535 36.6C12.7935 36.6 10.1135 35.82 7.7135 34.26C5.3535 32.7 3.4935 30.56 2.1335 27.84C0.773496 25.08 0.0934963 21.94 0.0934963 18.42C0.0934963 14.9 0.773496 11.78 2.1335 9.06C3.4935 6.3 5.3535 4.14 7.7135 2.58C10.1135 0.979999 12.7935 0.18 15.7535 0.18C18.7535 0.18 21.4335 0.979999 23.7935 2.58C26.1535 4.14 28.0135 6.3 29.3735 9.06C30.7335 11.78 31.4135 14.9 31.4135 18.42ZM21.7535 18.42C21.7535 16.54 21.4935 14.9 20.9735 13.5C20.4535 12.1 19.7335 11 18.8135 10.2C17.9335 9.4 16.9135 9 15.7535 9C14.5535 9 13.4935 9.4 12.5735 10.2C11.6535 11 10.9335 12.1 10.4135 13.5C9.9335 14.9 9.6935 16.54 9.6935 18.42C9.6935 20.3 9.9335 21.94 10.4135 23.34C10.9335 24.74 11.6535 25.84 12.5735 26.64C13.4935 27.4 14.5535 27.78 15.7535 27.78C16.9135 27.78 17.9335 27.4 18.8135 26.64C19.7335 25.84 20.4535 24.74 20.9735 23.34C21.4935 21.94 21.7535 20.3 21.7535 18.42ZM36.289 36C36.289 34.12 36.429 32.44 36.709 30.96C37.029 29.48 37.529 28.14 38.209 26.94C38.929 25.7 39.869 24.56 41.029 23.52C42.229 22.44 43.729 21.42 45.529 20.46C47.409 19.46 48.969 18.62 50.209 17.94C51.489 17.22 52.509 16.62 53.269 16.14C54.029 15.66 54.549 15.2 54.829 14.76C55.149 14.28 55.309 13.76 55.309 13.2C55.309 12.44 55.129 11.78 54.769 11.22C54.409 10.66 53.889 10.24 53.209 9.96C52.529 9.64 51.689 9.48 50.689 9.48C49.889 9.48 49.129 9.58 48.409 9.78C47.689 9.98 46.989 10.28 46.309 10.68C45.669 11.08 45.049 11.56 44.449 12.12C43.849 12.64 43.249 13.24 42.649 13.92L36.589 6.84C37.269 6.16 38.129 5.48 39.169 4.8C40.249 4.12 41.469 3.52 42.829 3C44.189 2.44 45.669 2 47.269 1.68C48.909 1.32 50.609 1.14 52.369 1.14C55.249 1.14 57.669 1.58 59.629 2.46C61.629 3.3 63.149 4.5 64.189 6.06C65.229 7.62 65.749 9.46 65.749 11.58C65.749 12.94 65.529 14.14 65.089 15.18C64.689 16.18 64.149 17.08 63.469 17.88C62.789 18.68 62.009 19.4 61.129 20.04C60.289 20.68 59.449 21.26 58.609 21.78C57.649 22.26 56.749 22.74 55.909 23.22C55.069 23.66 54.289 24.1 53.569 24.54C52.849 24.94 52.169 25.38 51.529 25.86C50.929 26.3 50.349 26.8 49.789 27.36H66.409V36H36.289Z" fill="#1A1A1A"/>
</svg>
