<svg width="68" height="44" viewBox="0 0 68 44" fill="none" xmlns="http://www.w3.org/2000/svg">
<path d="M32.08 18.42C32.08 21.94 31.4 25.08 30.04 27.84C28.68 30.56 26.82 32.7 24.46 34.26C22.1 35.82 19.42 36.6 16.42 36.6C13.46 36.6 10.78 35.82 8.38 34.26C6.02 32.7 4.16 30.56 2.8 27.84C1.44 25.08 0.76 21.94 0.76 18.42C0.76 14.9 1.44 11.78 2.8 9.06C4.16 6.3 6.02 4.14 8.38 2.58C10.78 0.979999 13.46 0.18 16.42 0.18C19.42 0.18 22.1 0.979999 24.46 2.58C26.82 4.14 28.68 6.3 30.04 9.06C31.4 11.78 32.08 14.9 32.08 18.42ZM22.42 18.42C22.42 16.54 22.16 14.9 21.64 13.5C21.12 12.1 20.4 11 19.48 10.2C18.6 9.4 17.58 9 16.42 9C15.22 9 14.16 9.4 13.24 10.2C12.32 11 11.6 12.1 11.08 13.5C10.6 14.9 10.36 16.54 10.36 18.42C10.36 20.3 10.6 21.94 11.08 23.34C11.6 24.74 12.32 25.84 13.24 26.64C14.16 27.4 15.22 27.78 16.42 27.78C17.58 27.78 18.6 27.4 19.48 26.64C20.4 25.84 21.12 24.74 21.64 23.34C22.16 21.94 22.42 20.3 22.42 18.42ZM52.4355 43.62V35.4H35.9355V26.82L55.4955 1.74H62.0355V26.76H67.3155V35.4H62.0355V43.62H52.4355ZM45.4155 26.76H53.5755V16.14L45.4155 26.76Z" fill="#1A1A1A"/>
</svg>
