<svg width="67" height="45" viewBox="0 0 67 45" fill="none" xmlns="http://www.w3.org/2000/svg">
<path d="M31.7467 18.42C31.7467 21.94 31.0667 25.08 29.7068 27.84C28.3467 30.56 26.4867 32.7 24.1267 34.26C21.7667 35.82 19.0867 36.6 16.0867 36.6C13.1267 36.6 10.4467 35.82 8.04675 34.26C5.68675 32.7 3.82675 30.56 2.46675 27.84C1.10675 25.08 0.426748 21.94 0.426748 18.42C0.426748 14.9 1.10675 11.78 2.46675 9.06C3.82675 6.3 5.68675 4.14 8.04675 2.58C10.4467 0.979999 13.1267 0.18 16.0867 0.18C19.0867 0.18 21.7667 0.979999 24.1267 2.58C26.4867 4.14 28.3467 6.3 29.7068 9.06C31.0667 11.78 31.7467 14.9 31.7467 18.42ZM22.0867 18.42C22.0867 16.54 21.8267 14.9 21.3067 13.5C20.7867 12.1 20.0667 11 19.1467 10.2C18.2667 9.4 17.2467 9 16.0867 9C14.8867 9 13.8267 9.4 12.9067 10.2C11.9867 11 11.2667 12.1 10.7467 13.5C10.2667 14.9 10.0267 16.54 10.0267 18.42C10.0267 20.3 10.2667 21.94 10.7467 23.34C11.2667 24.74 11.9867 25.84 12.9067 26.64C13.8267 27.4 14.8867 27.78 16.0867 27.78C17.2467 27.78 18.2667 27.4 19.1467 26.64C20.0667 25.84 20.7867 24.74 21.3067 23.34C21.8267 21.94 22.0867 20.3 22.0867 18.42ZM58.1022 21.78C59.7822 22.06 61.2422 22.72 62.4822 23.76C63.7622 24.76 64.7422 26.02 65.4222 27.54C66.1422 29.02 66.5022 30.7 66.5022 32.58C66.5022 35.06 65.8422 37.22 64.5222 39.06C63.2022 40.9 61.3222 42.32 58.8822 43.32C56.4422 44.32 53.5622 44.82 50.2422 44.82C47.2022 44.82 44.4822 44.36 42.0822 43.44C39.7222 42.56 37.6822 41.24 35.9622 39.48L41.1222 32.64C42.2022 33.72 43.4422 34.56 44.8422 35.16C46.2422 35.76 47.8822 36.06 49.7622 36.06C52.0422 36.06 53.7422 35.66 54.8622 34.86C55.9822 34.02 56.5422 32.76 56.5422 31.08C56.5422 29.28 55.8622 27.92 54.5022 27C53.1822 26.08 51.0822 25.62 48.2022 25.62H46.4022V18.72H48.3822C50.5822 18.72 52.3222 18.26 53.6022 17.34C54.8822 16.38 55.5222 15.16 55.5222 13.68C55.5222 12.8 55.3022 12.06 54.8622 11.46C54.4622 10.86 53.8822 10.42 53.1222 10.14C52.4022 9.82 51.5222 9.66 50.4822 9.66C48.8822 9.66 47.4022 10.04 46.0422 10.8C44.6822 11.56 43.5422 12.68 42.6222 14.16L36.5622 7.2C37.4422 6.04 38.6422 5.04 40.1622 4.2C41.7222 3.32 43.4822 2.64 45.4422 2.16C47.4022 1.68 49.4422 1.44 51.5622 1.44C54.4022 1.44 56.8822 1.88 59.0022 2.76C61.1622 3.64 62.8222 4.88 63.9822 6.48C65.1822 8.04 65.7822 9.9 65.7822 12.06C65.7822 13.62 65.4622 15.1 64.8222 16.5C64.1822 17.86 63.2822 19.02 62.1222 19.98C60.9622 20.9 59.6222 21.5 58.1022 21.78Z" fill="#1A1A1A"/>
</svg>
